Patient4_TMGait_0pt7_01_left_40_GRF.mot
version=1
nRows=26
nColumns=19
inDegrees=no
endheader
time	F1x	F1y	F1z	M1x	M1y	M1z	F2x	F2y	F2z	M2x	M2y	M2z	EC1x	EC1y	EC1z	EC2x	EC2y	EC2z
46.29	-8.8992	3.0541	-4.0955	-0.65047	3.3073	5.3371	-59.9709	841.922	-64.0265	347.681	108.8722	971.2616	-0.0592	0.0182	-0.0073	-0.0462	0.0165	0.9585
46.3018	-6.0098	2.9014	-2.6845	-0.73466	2.1448	4.641	-57.536	827.251	-65.6532	341.8152	107.5351	954.5957	-0.0592	0.0182	-0.0073	-0.0462	0.0165	0.9585
46.3136	-3.6199	2.8285	-1.5035	-0.81479	1.1634	4.1175	-54.2866	809.2869	-66.4439	334.5997	105.0674	932.8473	-0.0592	0.0182	-0.0073	-0.0462	0.0165	0.9585
46.3254	-1.8341	2.8317	-0.60414	-0.88755	0.408	3.7762	-50.369	788.6411	-66.3304	326.2653	101.5572	906.7306	-0.0592	0.0182	-0.0073	-0.0462	0.0165	0.9585
46.3371	-0.6393	2.8949	0.018606	-0.95288	-0.12756	3.6051	-45.9538	766.1457	-65.3501	317.1545	97.1546	877.3946	-0.0592	0.0182	-0.0073	-0.0462	0.0165	0.9585
46.3489	0.065367	2.9899	0.41515	-1.0085	-0.48558	3.5498	-41.2481	742.8467	-63.7249	307.6956	92.1585	846.3279	-0.0592	0.0182	-0.0073	-0.0462	0.0165	0.9585
46.3607	0.38047	3.0758	0.63861	-1.0472	-0.71385	3.5409	-36.3552	719.8997	-61.6235	298.3749	86.7692	815.0901	-0.0592	0.0182	-0.0073	-0.0462	0.0165	0.9585
46.3725	0.43314	3.0863	0.74121	-1.0525	-0.85197	3.4907	-31.3647	698.5392	-59.3094	289.7008	81.261	785.302	-0.0592	0.0182	-0.0073	-0.0462	0.0165	0.9585
46.3843	0.31269	2.9653	0.77469	-1.0098	-0.94267	3.3189	-26.2765	679.9053	-56.9431	282.1518	75.7861	758.3631	-0.0592	0.0182	-0.0073	-0.0462	0.0165	0.9585
46.3961	0.09846	2.6252	0.76385	-0.89425	-1.0007	2.904	-21.1186	664.9916	-54.751	276.1389	70.5655	735.4609	-0.0592	0.0182	-0.0073	-0.0462	0.0165	0.9585
46.4079	-0.15718	1.9727	0.74424	-0.6743	-1.0518	2.1201	-15.855	654.5437	-52.86	271.9765	65.7095	717.4045	-0.0592	0.0182	-0.0073	-0.0462	0.0165	0.9585
46.4196	-0.40846	0.89833	0.71887	-0.31442	-1.0935	0.82346	-10.5267	649.0339	-51.4004	269.8619	61.3498	704.6664	-0.0592	0.0182	-0.0073	-0.0462	0.0165	0.9585
46.4314	-0.61756	-0.68631	0.70078	0.21488	-1.1279	-1.1045	-5.1481	648.6168	-50.4325	269.8673	57.5407	697.3183	-0.0592	0.0182	-0.0073	-0.0462	0.0165	0.9585
46.4432	-0.72903	-2.8085	0.66311	0.92083	-1.1096	-3.7051	0.2314	653.2265	-49.9595	271.9652	54.2822	695.1975	-0.0592	0.0182	-0.0073	-0.0462	0.0165	0.9585
46.455	-0.67461	-5.3877	0.58637	1.7756	-0.98864	-6.8792	5.6147	662.5657	-49.9235	276.0337	51.4978	697.8772	-0.0592	0.0182	-0.0073	-0.0462	0.0165	0.9585
46.4668	-0.35218	-8.1333	0.42239	2.6819	-0.67488	-10.269	10.9884	676.1296	-50.2177	281.8508	49.0689	704.7677	-0.0592	0.0182	-0.0073	-0.0462	0.0165	0.9585
46.4786	0.36605	-10.4646	0.13117	3.4417	-0.072317	-13.1662	16.324	693.0181	-50.7739	289.0245	46.9241	714.9237	-0.0592	0.0182	-0.0073	-0.0462	0.0165	0.9585
46.4904	1.6026	-11.4027	-0.33909	3.7228	0.92472	-14.3594	21.4964	711.8468	-51.571	296.9452	45.0749	726.9911	-0.0592	0.0182	-0.0073	-0.0462	0.0165	0.9585
46.5021	3.4769	-9.4954	-1.0157	3.0358	2.395	-12.0534	26.3604	730.6893	-52.6888	304.7728	43.6344	739.1197	-0.0592	0.0182	-0.0073	-0.0462	0.0165	0.9585
46.5139	6.0317	-2.7495	-1.9213	0.71707	4.3799	-3.7797	30.7482	747.356	-54.1578	311.5626	42.6799	749.2576	-0.0592	0.0182	-0.0073	-0.0462	0.0165	0.9585
46.5257	9.1916	11.2478	-3.0052	-4.0331	6.7935	13.4447	34.5523	759.6609	-55.9392	316.3979	42.2144	755.3549	-0.0592	0.0182	-0.0073	-0.0462	0.0165	0.9585
46.5375	12.637	35.0998	-4.148	-12.0688	9.3714	42.8639	37.7243	765.7975	-57.8153	318.5512	42.0615	755.7525	-0.0592	0.0182	-0.0073	-0.0462	0.0165	0.9585
46.5493	15.7204	71.0213	-5.0809	-24.1055	11.5564	87.2383	40.2981	764.5186	-59.432	317.5543	41.8929	749.3316	-0.0592	0.0182	-0.0073	-0.0462	0.0165	0.9585
46.5611	17.292	119.981	-5.386	-40.429	12.4309	147.7958	42.3403	755.0844	-60.3748	313.1616	41.3137	735.4641	-0.0592	0.0182	-0.0073	-0.0462	0.0165	0.9585
46.5729	15.6938	180.3931	-4.4184	-60.4637	10.6403	222.6089	43.9075	737.0222	-60.2616	305.245	39.9663	713.7641	-0.0592	0.0182	-0.0073	-0.0462	0.0165	0.9585
46.5846	9.4836	247.3369	-1.4644	-82.5146	4.8472	305.6437	44.9815	709.9929	-58.8232	293.7205	37.6297	683.9877	-0.0592	0.0182	-0.0073	-0.0462	0.0165	0.9585
